<svg width="100" height="14" viewBox="0 0 100 14" fill="none" xmlns="http://www.w3.org/2000/svg">
<g opacity="0.8">
<path fill-rule="evenodd" clip-rule="evenodd" d="M14.6774 1.29938C12.9141 -0.432673 10.0445 -0.432673 8.2809 1.29938C8.18313 1.39542 8.08955 1.49658 8.00013 1.60253C7.91072 1.49624 7.81713 1.39542 7.71901 1.29904C5.95577 -0.433014 3.08615 -0.433014 1.32256 1.29904C-0.441028 3.0311 -0.44068 5.84997 1.32256 7.58237L7.75381 13.8999C7.82165 13.9665 7.91072 14 7.99978 14C8.08885 14 8.17792 13.9665 8.24576 13.8999L14.677 7.58237C16.4409 5.85031 16.4409 3.03144 14.6774 1.29938Z" fill="#FF523D"/>
</g>
<g opacity="0.8">
<path fill-rule="evenodd" clip-rule="evenodd" d="M35.6774 1.29938C33.9141 -0.432673 31.0445 -0.432673 29.2809 1.29938C29.1831 1.39542 29.0895 1.49658 29.0001 1.60253C28.9107 1.49624 28.8171 1.39542 28.719 1.29904C26.9558 -0.433014 24.0862 -0.433014 22.3226 1.29904C20.559 3.0311 20.5593 5.84997 22.3226 7.58237L28.7538 13.8999C28.8216 13.9665 28.9107 14 28.9998 14C29.0888 14 29.1779 13.9665 29.2458 13.8999L35.677 7.58237C37.4409 5.85031 37.4409 3.03144 35.6774 1.29938Z" fill="#FF523D"/>
</g>
<g opacity="0.8">
<path fill-rule="evenodd" clip-rule="evenodd" d="M56.6774 1.29938C54.9141 -0.432673 52.0445 -0.432673 50.2809 1.29938C50.1831 1.39542 50.0895 1.49658 50.0001 1.60253C49.9107 1.49624 49.8171 1.39542 49.719 1.29904C47.9558 -0.433014 45.0862 -0.433014 43.3226 1.29904C41.559 3.0311 41.5593 5.84997 43.3226 7.58237L49.7538 13.8999C49.8216 13.9665 49.9107 14 49.9998 14C50.0888 14 50.1779 13.9665 50.2458 13.8999L56.677 7.58237C58.4409 5.85031 58.4409 3.03144 56.6774 1.29938Z" fill="#FF523D"/>
</g>
<path opacity="0.8" fill-rule="evenodd" clip-rule="evenodd" d="M77.6774 1.29938C75.9141 -0.432673 73.0445 -0.432673 71.2809 1.29938C71.1831 1.39542 71.0895 1.49658 71.0001 1.60253C70.9107 1.49624 70.8171 1.39542 70.719 1.29904C68.9558 -0.433014 66.0862 -0.433014 64.3226 1.29904C62.559 3.0311 62.5593 5.84997 64.3226 7.58237L70.7538 13.8999C70.8216 13.9665 70.9107 14 70.9998 14C71.0888 14 71.1779 13.9665 71.2458 13.8999L77.677 7.58237C79.4409 5.85031 79.4409 3.03144 77.6774 1.29938Z" fill="#FF523D"/>
<path opacity="0.8" fill-rule="evenodd" clip-rule="evenodd" d="M98.6774 1.29938C96.9141 -0.432673 94.0445 -0.432673 92.2809 1.29938C92.1831 1.39542 92.0895 1.49658 92.0001 1.60253C91.9107 1.49624 91.8171 1.39542 91.719 1.29904C89.9558 -0.433014 87.0862 -0.433014 85.3226 1.29904C83.559 3.0311 83.5593 5.84997 85.3226 7.58237L91.7538 13.8999C91.8216 13.9665 91.9107 14 91.9998 14C92.0888 14 92.1779 13.9665 92.2458 13.8999L98.677 7.58237C100.441 5.85031 100.441 3.03144 98.6774 1.29938Z" fill="#FF523D"/>
</svg>
