<svg width="52" height="16" viewBox="0 0 52 16" fill="none" xmlns="http://www.w3.org/2000/svg">
<g clip-path="url(#clip0)">
<path d="M14.7423 11.3392C14.6616 11.1442 14.586 10.9392 14.5053 10.7642L14.1322 9.92924L14.1171 9.91424C13.0079 7.51424 11.823 5.07424 10.5675 2.67424L10.5171 2.57424C10.3911 2.33924 10.265 2.07924 10.1339 1.83924C9.97257 1.55424 9.81626 1.24924 9.55912 0.95924C9.30847 0.655805 8.99302 0.411334 8.63553 0.243467C8.27804 0.0756006 7.88743 -0.0114746 7.49189 -0.0114746C7.09635 -0.0114746 6.70574 0.0756006 6.34826 0.243467C5.99077 0.411334 5.67532 0.655805 5.42467 0.95924C5.18769 1.24924 5.01122 1.55424 4.84988 1.83924C4.72383 2.09924 4.59777 2.35424 4.46668 2.58924L4.41626 2.68924C3.18097 5.08924 1.97593 7.52924 0.866683 9.92924L0.836431 9.95924C0.725507 10.2192 0.594414 10.4892 0.468364 10.7792C0.387691 10.9542 0.307019 11.1442 0.226347 11.3542C0.00854824 11.9041 -0.0610017 12.5008 0.0245514 13.0855C0.110105 13.6701 0.347808 14.2226 0.714235 14.6884C1.08066 15.1543 1.56316 15.5174 2.11419 15.742C2.66522 15.9666 3.26575 16.0449 3.8566 15.9692C4.42305 15.8953 4.9685 15.7082 5.45996 15.4192C6.11542 15.0542 6.74567 14.5242 7.45156 13.7592C8.15744 14.5242 8.80282 15.0542 9.44315 15.4242C10.0589 15.7827 10.7563 15.9805 11.47 15.9992C12.2966 16.0026 13.0965 15.7094 13.722 15.1736C14.3476 14.6378 14.7565 13.8957 14.8734 13.0842C15.0085 12.5011 14.9628 11.8912 14.7423 11.3342V11.3392ZM7.50198 12.1692C6.63475 11.0692 6.07004 10.0592 5.87845 9.19424C5.79907 8.87371 5.78196 8.54112 5.82803 8.21424C5.86332 7.95924 5.95912 7.73424 6.09021 7.54424C6.39273 7.10924 6.92214 6.83924 7.50198 6.83924C7.77734 6.8309 8.05048 6.89049 8.29689 7.01266C8.54329 7.13484 8.75525 7.31578 8.91374 7.53924C9.04483 7.73924 9.14063 7.95924 9.17089 8.21424C9.2213 8.50424 9.20114 8.83924 9.12046 9.19424C8.92887 10.0442 8.36416 11.0642 7.50198 12.1692ZM13.9255 12.9092C13.8682 13.3212 13.7031 13.7111 13.4465 14.0401C13.19 14.3691 12.851 14.6256 12.4633 14.7842C12.0801 14.9442 11.6566 14.9892 11.2432 14.9442C10.8398 14.8942 10.4364 14.7642 10.023 14.5242C9.33652 14.1035 8.71924 13.5807 8.19273 12.9742C9.25156 11.6742 9.89189 10.4892 10.1339 9.43424C10.2499 8.93424 10.265 8.48424 10.2146 8.06924C10.1516 7.67588 10.0037 7.30066 9.78097 6.96924C9.52665 6.60987 9.18719 6.31796 8.79244 6.11918C8.3977 5.9204 7.95975 5.82084 7.5171 5.82924C6.58433 5.82924 5.7524 6.25924 5.2482 6.96424C5.02122 7.29482 4.87454 7.67303 4.81962 8.06924C4.75408 8.48924 4.7692 8.95424 4.9003 9.43424C5.14231 10.4892 5.79777 11.6892 6.84147 12.9842C6.3239 13.6023 5.70519 14.1297 5.01122 14.5442C4.59273 14.7842 4.19441 14.9092 3.79105 14.9592C3.16377 15.0389 2.53012 14.8699 2.02784 14.4888C1.52556 14.1077 1.19525 13.5455 1.1087 12.9242C1.05828 12.5242 1.09357 12.1242 1.25492 11.6742C1.30534 11.5142 1.38097 11.3542 1.46164 11.1642C1.57257 10.9042 1.70366 10.6342 1.82971 10.3642L1.84988 10.3292C2.93895 7.94424 4.12887 5.50924 5.36416 3.12424L5.41458 3.02424C5.54063 2.78424 5.66668 2.52924 5.79778 2.28924C5.92887 2.03424 6.07004 1.78924 6.25156 1.58924C6.40867 1.40325 6.60499 1.25368 6.82669 1.15105C7.04839 1.04842 7.29008 0.995234 7.53475 0.995234C7.77942 0.995234 8.02111 1.04842 8.24281 1.15105C8.46451 1.25368 8.66083 1.40325 8.81794 1.58924C8.99441 1.78924 9.14063 2.03424 9.27172 2.28924C9.39777 2.52924 9.52383 2.78924 9.65492 3.02424L9.70534 3.12424C10.9356 5.50924 12.1255 7.94424 13.2347 10.3292L13.2499 10.3442C13.381 10.6042 13.4919 10.8942 13.6179 11.1442C13.6986 11.3392 13.7793 11.4942 13.8297 11.6592C13.9255 12.1092 13.9759 12.5092 13.9255 12.9092ZM20.944 12.0592C20.5641 12.0648 20.1877 11.9854 19.843 11.827C19.4982 11.6686 19.1938 11.4352 18.9524 11.1442C18.4099 10.5242 18.122 9.72478 18.1457 8.90424C18.1374 8.06584 18.4346 7.25266 18.9826 6.61424C19.2362 6.31955 19.5517 6.08355 19.9072 5.92288C20.2626 5.7622 20.6492 5.68074 21.0398 5.68424C21.4073 5.67426 21.7714 5.75714 22.0977 5.92507C22.4241 6.09301 22.702 6.34049 22.9053 6.64424L22.9558 5.85924H24.428V11.8992H22.9507L22.9003 11.0192C22.6906 11.3436 22.4008 11.6094 22.0585 11.7914C21.7161 11.9734 21.3324 12.0656 20.944 12.0592ZM21.3272 10.6192C21.6196 10.6192 21.8768 10.5392 22.1188 10.3942C22.3406 10.2342 22.5221 10.0242 22.6633 9.76924C22.7894 9.51424 22.8549 9.20924 22.8549 8.86924C22.8746 8.57394 22.8166 8.27863 22.6867 8.0122C22.5568 7.74577 22.3594 7.51734 22.1137 7.34924C21.8777 7.20342 21.6052 7.12613 21.3272 7.12613C21.0491 7.12613 20.7766 7.20342 20.5406 7.34924C20.3188 7.50924 20.1373 7.71924 19.9961 7.97424C19.8628 8.25546 19.7972 8.56357 19.8045 8.87424C19.7848 9.16954 19.8428 9.46485 19.9727 9.73128C20.1026 9.99771 20.3001 10.2261 20.5457 10.3942C20.7826 10.5392 21.0398 10.6192 21.3272 10.6192ZM26.949 4.22924C26.949 4.40424 26.9188 4.56424 26.8381 4.69424C26.7574 4.81924 26.6465 4.93424 26.5003 5.01424C26.3541 5.09424 26.1978 5.12424 26.0364 5.12424C25.8751 5.12424 25.7137 5.09424 25.5675 5.01424C25.4292 4.93789 25.3129 4.82774 25.2297 4.69424C25.1516 4.55181 25.1133 4.39127 25.1188 4.22924C25.1188 4.04924 25.1541 3.88924 25.2297 3.76424C25.3104 3.61424 25.4263 3.52424 25.5675 3.44424C25.7137 3.36424 25.87 3.32924 26.0364 3.32924C26.1969 3.32557 26.3556 3.36327 26.497 3.43864C26.6384 3.51401 26.7577 3.62448 26.8432 3.75924C26.9165 3.90501 26.9529 4.06636 26.949 4.22924ZM25.2347 11.8792V5.84924H26.8381V11.8892H25.2297L25.2347 11.8792ZM31.1238 7.42924V7.44924C31.0482 7.41424 30.9474 7.39924 30.8717 7.38424C30.7709 7.36424 30.6902 7.36424 30.5944 7.36424C30.1457 7.36424 29.8079 7.49424 29.586 7.76424C29.344 8.03924 29.2331 8.42424 29.2331 8.91924V11.8842H27.6247V5.84424H29.102L29.1524 6.75924C29.3137 6.43924 29.5053 6.19924 29.7776 6.01924C30.0484 5.84435 30.3673 5.75701 30.6902 5.76924C30.8062 5.76924 30.9171 5.77924 31.0129 5.79924C31.0633 5.81424 31.0936 5.81424 31.1238 5.82924V7.42924ZM31.7692 11.8792V3.36924H33.3726V6.61924C33.5995 6.32924 33.8566 6.10424 34.1793 5.92924C34.6901 5.68086 35.2705 5.6104 35.8267 5.72924C36.3829 5.84807 36.8825 6.14928 37.2448 6.58424C37.7885 7.20554 38.0765 8.00699 38.0516 8.82924C38.0599 9.66763 37.7626 10.4808 37.2146 11.1192C36.9611 11.4139 36.6455 11.6499 36.2901 11.8106C35.9347 11.9713 35.548 12.0527 35.1574 12.0492C34.7899 12.0592 34.4259 11.9763 34.0995 11.8084C33.7732 11.6405 33.4953 11.393 33.2919 11.0892L33.2415 11.8742L31.7692 11.8892V11.8792ZM34.87 10.6192C35.1574 10.6192 35.4146 10.5392 35.6566 10.3942C35.8784 10.2342 36.06 10.0242 36.2011 9.76924C36.3322 9.51424 36.3927 9.20924 36.3927 8.86924C36.3927 8.53424 36.3322 8.22924 36.2011 7.97424C36.0687 7.72836 35.8827 7.51484 35.6566 7.34924C35.4206 7.20342 35.1481 7.12613 34.87 7.12613C34.592 7.12613 34.3195 7.20342 34.0835 7.34924C33.8566 7.50924 33.6801 7.71924 33.5339 7.97424C33.4006 8.25546 33.335 8.56357 33.3423 8.87424C33.3227 9.16954 33.3806 9.46485 33.5105 9.73128C33.6405 9.99771 33.8379 10.2261 34.0835 10.3942C34.3205 10.5392 34.5776 10.6192 34.87 10.6192ZM38.6566 11.8842V5.84424H40.1339L40.1843 6.62924C40.37 6.32833 40.6333 6.08207 40.9471 5.91593C41.2609 5.74979 41.6138 5.6698 41.9692 5.68424C42.3756 5.67728 42.7751 5.7893 43.1177 6.00629C43.4603 6.22329 43.7307 6.53562 43.8953 6.90424C44.0717 7.28424 44.1675 7.75424 44.1675 8.27924V11.8992H42.5591V8.48924C42.5591 8.06924 42.4633 7.73924 42.2717 7.49424C42.0801 7.25424 41.8179 7.12424 41.4852 7.12424C41.2432 7.12424 41.0314 7.17424 40.8448 7.28424C40.6684 7.39924 40.5221 7.54424 40.4112 7.74924C40.2991 7.95646 40.2435 8.18914 40.2499 8.42424V11.8842H38.6566ZM44.9692 11.8842V3.36424H46.5776V6.61424C46.7955 6.32262 47.0789 6.08538 47.4053 5.92134C47.7318 5.7573 48.0923 5.67098 48.4583 5.66924C48.8382 5.66373 49.2145 5.74311 49.5593 5.90151C49.9041 6.05991 50.2085 6.29326 50.4499 6.58424C50.9897 7.2055 51.2756 8.00451 51.2516 8.82424C51.2603 9.66271 50.963 10.476 50.4146 11.1142C50.1611 11.4089 49.8455 11.6449 49.4901 11.8056C49.1347 11.9663 48.748 12.0477 48.3574 12.0442C47.9899 12.0542 47.6259 11.9713 47.2995 11.8034C46.9732 11.6355 46.6953 11.388 46.4919 11.0842L46.4465 11.8692L44.9692 11.8842ZM48.0852 10.6192C48.3776 10.6192 48.6348 10.5392 48.8717 10.3942C49.0986 10.2342 49.2751 10.0242 49.4213 9.76924C49.5474 9.51424 49.6129 9.20924 49.6129 8.86924C49.6326 8.57394 49.5746 8.27863 49.4447 8.0122C49.3148 7.74577 49.1173 7.51734 48.8717 7.34924C48.6357 7.20342 48.3632 7.12613 48.0852 7.12613C47.8071 7.12613 47.5346 7.20342 47.2986 7.34924C47.0768 7.50924 46.8953 7.71924 46.7541 7.97424C46.6133 8.25295 46.5474 8.5629 46.5625 8.87424C46.5428 9.16954 46.6008 9.46485 46.7307 9.73128C46.8606 9.99771 47.058 10.2261 47.3037 10.3942C47.5406 10.5392 47.7826 10.6192 48.0852 10.6192Z" fill="#FF385C"/>
</g>
<defs>
<clipPath id="clip0">
<rect width="51.4286" height="16" fill="white"/>
</clipPath>
</defs>
</svg>
