<svg width="116" height="32" viewBox="0 0 116 32" fill="none" xmlns="http://www.w3.org/2000/svg">
<path fill-rule="evenodd" clip-rule="evenodd" d="M0 4.57143C0 2.0467 2.0467 0 4.57143 0H27.4286C29.9533 0 32 2.0467 32 4.57143V27.4286C32 29.9533 29.9533 32 27.4286 32H4.57143C2.0467 32 0 29.9533 0 27.4286V4.57143ZM5.02381 7.41125V25.1429H9.73377V14.8225H9.87229L13.8203 25.0043H16.6602L20.6082 14.8918H20.7468V25.1429H25.4567V7.41125H19.4654L15.3442 17.4545H15.1364L11.0152 7.41125H5.02381ZM15.2381 9.14286C16.9212 9.14286 18.2857 7.77839 18.2857 6.09524C18.2857 4.41208 16.9212 3.04762 15.2381 3.04762C13.5549 3.04762 12.1905 4.41208 12.1905 6.09524C12.1905 7.77839 13.5549 9.14286 15.2381 9.14286Z" fill="#005FEC"/>
<path d="M37.7409 23V12.0909H40.1983V13.9446H40.3262C40.5534 13.3196 40.9299 12.8319 41.4554 12.4815C41.981 12.1264 42.6084 11.9489 43.3375 11.9489C44.0762 11.9489 44.6988 12.1288 45.2054 12.4886C45.7168 12.8437 46.0766 13.3291 46.285 13.9446H46.3986C46.6401 13.3385 47.0473 12.8556 47.6202 12.4957C48.1979 12.1312 48.882 11.9489 49.6728 11.9489C50.6766 11.9489 51.4957 12.2661 52.1301 12.9006C52.7646 13.535 53.0819 14.4607 53.0819 15.6776V23H50.5037V16.0753C50.5037 15.3982 50.3238 14.9034 49.964 14.5909C49.6041 14.2737 49.1638 14.1151 48.6429 14.1151C48.0227 14.1151 47.5373 14.3092 47.187 14.6974C46.8413 15.081 46.6685 15.5805 46.6685 16.196V23H44.1472V15.9688C44.1472 15.4053 43.9767 14.9555 43.6358 14.6193C43.2997 14.2831 42.8593 14.1151 42.3148 14.1151C41.9455 14.1151 41.6093 14.2098 41.3063 14.3991C41.0033 14.5838 40.7618 14.8466 40.5819 15.1875C40.4019 15.5237 40.312 15.9167 40.312 16.3665V23H37.7409ZM60.5197 23.2131C59.426 23.2131 58.4814 22.9858 57.6859 22.5312C56.8952 22.072 56.2868 21.4233 55.8606 20.5852C55.4345 19.7424 55.2214 18.7505 55.2214 17.6094C55.2214 16.4872 55.4345 15.5024 55.8606 14.6548C56.2915 13.8026 56.8928 13.1397 57.6646 12.6662C58.4364 12.188 59.3431 11.9489 60.3848 11.9489C61.0571 11.9489 61.6916 12.0578 62.2882 12.2756C62.8895 12.4886 63.4198 12.8201 63.8791 13.2699C64.3431 13.7197 64.7077 14.2926 64.9728 14.9886C65.238 15.6799 65.3706 16.5038 65.3706 17.4602V18.2486H56.4288V16.5156H62.9061C62.9013 16.0232 62.7948 15.5852 62.5865 15.2017C62.3781 14.8134 62.0869 14.508 61.7129 14.2855C61.3436 14.063 60.9127 13.9517 60.4203 13.9517C59.8947 13.9517 59.4331 14.0795 59.0353 14.3352C58.6376 14.5862 58.3275 14.9176 58.1049 15.3295C57.8871 15.7367 57.7759 16.1842 57.7711 16.6719V18.1847C57.7711 18.8191 57.8871 19.3636 58.1191 19.8182C58.3511 20.268 58.6755 20.6136 59.0922 20.8551C59.5088 21.0919 59.9965 21.2102 60.5552 21.2102C60.9293 21.2102 61.2678 21.1581 61.5708 21.054C61.8739 20.9451 62.1367 20.7865 62.3592 20.5781C62.5817 20.3698 62.7498 20.1117 62.8635 19.804L65.264 20.0739C65.1125 20.7083 64.8237 21.2623 64.3976 21.7358C63.9761 22.2045 63.4364 22.5691 62.7782 22.8295C62.1201 23.0852 61.3672 23.2131 60.5197 23.2131ZM72.3752 23.2131C71.2814 23.2131 70.3368 22.9858 69.5414 22.5312C68.7507 22.072 68.1422 21.4233 67.7161 20.5852C67.29 19.7424 67.0769 18.7505 67.0769 17.6094C67.0769 16.4872 67.29 15.5024 67.7161 14.6548C68.147 13.8026 68.7483 13.1397 69.5201 12.6662C70.2918 12.188 71.1986 11.9489 72.2402 11.9489C72.9126 11.9489 73.5471 12.0578 74.1436 12.2756C74.745 12.4886 75.2753 12.8201 75.7346 13.2699C76.1986 13.7197 76.5632 14.2926 76.8283 14.9886C77.0935 15.6799 77.226 16.5038 77.226 17.4602V18.2486H68.2843V16.5156H74.7615C74.7568 16.0232 74.6503 15.5852 74.4419 15.2017C74.2336 14.8134 73.9424 14.508 73.5684 14.2855C73.199 14.063 72.7682 13.9517 72.2757 13.9517C71.7502 13.9517 71.2885 14.0795 70.8908 14.3352C70.4931 14.5862 70.1829 14.9176 69.9604 15.3295C69.7426 15.7367 69.6313 16.1842 69.6266 16.6719V18.1847C69.6266 18.8191 69.7426 19.3636 69.9746 19.8182C70.2066 20.268 70.531 20.6136 70.9476 20.8551C71.3643 21.0919 71.852 21.2102 72.4107 21.2102C72.7847 21.2102 73.1233 21.1581 73.4263 21.054C73.7293 20.9451 73.9921 20.7865 74.2147 20.5781C74.4372 20.3698 74.6053 20.1117 74.7189 19.804L77.1195 20.0739C76.968 20.7083 76.6792 21.2623 76.253 21.7358C75.8316 22.2045 75.2918 22.5691 74.6337 22.8295C73.9756 23.0852 73.2227 23.2131 72.3752 23.2131ZM84.8485 12.0909V14.0795H78.5772V12.0909H84.8485ZM80.1255 9.47727H82.6966V19.7188C82.6966 20.0644 82.7486 20.3295 82.8528 20.5142C82.9617 20.6941 83.1038 20.8172 83.2789 20.8835C83.4541 20.9498 83.6483 20.983 83.8613 20.983C84.0223 20.983 84.1691 20.9711 84.3017 20.9474C84.439 20.9238 84.5431 20.9025 84.6142 20.8835L85.0474 22.8935C84.9101 22.9408 84.7136 22.9929 84.4579 23.0497C84.207 23.1065 83.8992 23.1397 83.5346 23.1491C82.8907 23.1681 82.3107 23.071 81.7946 22.858C81.2785 22.6402 80.8689 22.304 80.5659 21.8494C80.2676 21.3949 80.1208 20.8267 80.1255 20.1449V9.47727ZM86.9988 23V12.0909H89.5698V23H86.9988ZM88.2914 10.5426C87.8842 10.5426 87.5338 10.4077 87.2402 10.1378C86.9467 9.86316 86.7999 9.53409 86.7999 9.15057C86.7999 8.76231 86.9467 8.43324 87.2402 8.16335C87.5338 7.88873 87.8842 7.75142 88.2914 7.75142C88.7033 7.75142 89.0537 7.88873 89.3425 8.16335C89.6361 8.43324 89.7828 8.76231 89.7828 9.15057C89.7828 9.53409 89.6361 9.86316 89.3425 10.1378C89.0537 10.4077 88.7033 10.5426 88.2914 10.5426ZM94.7846 16.608V23H92.2136V12.0909H94.671V13.9446H94.7988C95.0498 13.3338 95.4499 12.8485 95.9991 12.4886C96.5531 12.1288 97.2373 11.9489 98.0517 11.9489C98.8045 11.9489 99.4603 12.1098 100.019 12.4318C100.582 12.7538 101.018 13.2202 101.326 13.831C101.638 14.4418 101.792 15.1828 101.787 16.054V23H99.2164V16.4517C99.2164 15.7225 99.027 15.152 98.6483 14.7401C98.2742 14.3281 97.7557 14.1222 97.0929 14.1222C96.6431 14.1222 96.243 14.2216 95.8926 14.4205C95.5469 14.6146 95.2747 14.8963 95.0758 15.2656C94.8817 15.6349 94.7846 16.0824 94.7846 16.608ZM109.145 27.3182C108.222 27.3182 107.429 27.1927 106.766 26.9418C106.103 26.6955 105.571 26.3641 105.168 25.9474C104.766 25.5308 104.486 25.0691 104.33 24.5625L106.645 24.0014C106.75 24.2145 106.901 24.4252 107.1 24.6335C107.299 24.8466 107.566 25.0218 107.903 25.1591C108.243 25.3011 108.672 25.3722 109.188 25.3722C109.917 25.3722 110.521 25.1946 110.999 24.8395C111.477 24.4891 111.716 23.9115 111.716 23.1065V21.0398H111.589C111.456 21.3049 111.262 21.5772 111.006 21.8565C110.755 22.1359 110.421 22.3703 110.005 22.5597C109.593 22.7491 109.074 22.8438 108.449 22.8438C107.611 22.8438 106.851 22.6473 106.17 22.2543C105.492 21.8565 104.953 21.2647 104.55 20.4787C104.153 19.688 103.954 18.6984 103.954 17.5099C103.954 16.312 104.153 15.3011 104.55 14.4773C104.953 13.6487 105.495 13.0213 106.177 12.5952C106.858 12.1643 107.618 11.9489 108.456 11.9489C109.096 11.9489 109.621 12.0578 110.033 12.2756C110.45 12.4886 110.781 12.7467 111.028 13.0497C111.274 13.348 111.461 13.6297 111.589 13.8949H111.731V12.0909H114.266V23.1776C114.266 24.1103 114.044 24.8821 113.599 25.4929C113.153 26.1037 112.545 26.5606 111.773 26.8636C111.001 27.1667 110.126 27.3182 109.145 27.3182ZM109.167 20.8267C109.711 20.8267 110.175 20.6941 110.559 20.429C110.942 20.1638 111.233 19.7827 111.432 19.2855C111.631 18.7884 111.731 18.1918 111.731 17.4957C111.731 16.8092 111.631 16.2079 111.432 15.6918C111.238 15.1757 110.949 14.7756 110.566 14.4915C110.187 14.2027 109.721 14.0582 109.167 14.0582C108.594 14.0582 108.116 14.2074 107.732 14.5057C107.349 14.804 107.06 15.2135 106.866 15.7344C106.671 16.2505 106.574 16.8376 106.574 17.4957C106.574 18.1634 106.671 18.7481 106.866 19.25C107.064 19.7472 107.356 20.1354 107.739 20.4148C108.127 20.6894 108.603 20.8267 109.167 20.8267Z" fill="#18216D"/>
</svg>
