<svg width="70" height="16" viewBox="0 0 70 16" fill="none" xmlns="http://www.w3.org/2000/svg">
<g clip-path="url(#clip0)">
<path d="M24.7505 9.12866L24.335 10.3034H24.3004C24.2311 10.0385 24.1041 9.63541 23.8964 9.15169L21.6688 3.56587H19.4873V12.4686H20.9301V6.97495C20.9301 6.62943 20.9301 6.23785 20.9185 5.75413C20.907 5.51227 20.8839 5.32799 20.8724 5.18979H20.907C20.9762 5.5353 21.057 5.78868 21.1147 5.94992L23.7925 12.4456H24.8082L27.4629 5.89233C27.5206 5.74261 27.5783 5.44316 27.636 5.18979H27.6707C27.636 5.84626 27.6129 6.43364 27.6014 6.79067V12.4341H29.1365V3.54283H27.0358L24.7505 9.12866ZM30.5908 6.05357H32.0913V12.4341H30.5908V6.05357ZM31.3526 3.35856C31.0987 3.35856 30.8909 3.45069 30.7178 3.61193C30.5446 3.77317 30.4523 3.98048 30.4523 4.23386C30.4523 4.47572 30.5446 4.68303 30.7178 4.84427C30.8909 5.00551 31.0987 5.08613 31.3526 5.08613C31.6065 5.08613 31.8258 4.99399 31.9874 4.84427C32.1605 4.68303 32.2529 4.47572 32.2529 4.23386C32.2529 3.992 32.1605 3.78469 31.9874 3.61193C31.8374 3.45069 31.6181 3.35856 31.3526 3.35856ZM37.4122 5.99599C37.1352 5.9384 36.8466 5.90385 36.5696 5.90385C35.8886 5.90385 35.2654 6.05357 34.746 6.35302C34.2266 6.65247 33.8111 7.06708 33.5456 7.58536C33.2686 8.11515 33.1301 8.72555 33.1301 9.4281C33.1301 10.0385 33.2686 10.5798 33.534 11.0751C33.7995 11.5588 34.1689 11.9504 34.6652 12.2153C35.1384 12.4801 35.6924 12.6184 36.3157 12.6184C37.0313 12.6184 37.643 12.4686 38.1278 12.1922L38.1393 12.1807V10.7986L38.0816 10.8447C37.8623 11.006 37.6084 11.1442 37.3545 11.2248C37.089 11.3169 36.8466 11.363 36.6389 11.363C36.0387 11.363 35.5655 11.1902 35.2307 10.8102C34.8845 10.4416 34.7113 9.93486 34.7113 9.30141C34.7113 8.64493 34.8845 8.12666 35.2423 7.74659C35.6001 7.36653 36.0733 7.17074 36.6504 7.17074C37.1352 7.17074 37.6315 7.33198 38.0816 7.65446L38.1393 7.70053V6.23785L38.1278 6.22633C37.9316 6.14571 37.7123 6.05357 37.4122 5.99599ZM42.3637 5.94992C41.9944 5.94992 41.6481 6.06509 41.348 6.30695C41.0941 6.51426 40.921 6.8137 40.7709 7.17074H40.7594V6.05357H39.2589V12.4341H40.7594V9.17472C40.7594 8.6219 40.8748 8.16121 41.1287 7.82722C41.3827 7.4817 41.7058 7.30894 42.0983 7.30894C42.2368 7.30894 42.3753 7.34349 42.5484 7.36653C42.71 7.4126 42.8254 7.45867 42.9062 7.51625L42.9639 7.56232V6.06509L42.9293 6.05357C42.8254 5.98447 42.6177 5.94992 42.3637 5.94992ZM46.4497 5.91537C45.3993 5.91537 44.5567 6.22633 43.9681 6.83674C43.3679 7.44715 43.0794 8.2879 43.0794 9.34748C43.0794 10.338 43.3795 11.1442 43.9566 11.7315C44.5337 12.3074 45.3185 12.6068 46.2996 12.6068C47.3268 12.6068 48.1463 12.2959 48.735 11.6739C49.3352 11.052 49.6237 10.2228 49.6237 9.19776C49.6237 8.18425 49.3467 7.37805 48.7812 6.79067C48.2387 6.2033 47.4423 5.91537 46.4497 5.91537ZM47.65 10.8217C47.373 11.1787 46.9344 11.3515 46.3919 11.3515C45.8495 11.3515 45.4109 11.1787 45.0992 10.7986C44.7876 10.4416 44.6375 9.92334 44.6375 9.26686C44.6375 8.58735 44.7991 8.06908 45.0992 7.70053C45.4109 7.33198 45.8379 7.1477 46.3804 7.1477C46.9113 7.1477 47.3268 7.32046 47.6269 7.67749C47.927 8.03452 48.0886 8.5528 48.0886 9.23231C48.0655 9.92334 47.9386 10.4646 47.65 10.8217ZM52.9709 8.70252C52.4977 8.50673 52.1976 8.35701 52.0591 8.23032C51.9437 8.11514 51.886 7.9539 51.886 7.74659C51.886 7.57384 51.9552 7.40108 52.1284 7.28591C52.3015 7.17074 52.4977 7.11315 52.7863 7.11315C53.0402 7.11315 53.3057 7.15922 53.5596 7.22832C53.8135 7.29743 54.0444 7.40108 54.229 7.53929L54.2867 7.58536V6.18026L54.2521 6.16874C54.079 6.09964 53.8481 6.03054 53.5711 5.97295C53.2941 5.92688 53.0402 5.90385 52.8324 5.90385C52.1168 5.90385 51.5282 6.07661 51.0665 6.45667C50.6048 6.8137 50.3855 7.29743 50.3855 7.86177C50.3855 8.16121 50.4317 8.42611 50.5356 8.64493C50.6394 8.86376 50.7895 9.07107 50.9972 9.24383C51.205 9.40507 51.5051 9.58934 51.9206 9.7621C52.2669 9.91182 52.5323 10.027 52.6939 10.1191C52.8555 10.2113 52.9594 10.3149 53.0402 10.3955C53.0979 10.4877 53.1325 10.6029 53.1325 10.7526C53.1325 11.1787 52.8093 11.386 52.1514 11.386C51.8975 11.386 51.6321 11.34 51.3204 11.2363C51.0088 11.1326 50.7202 10.9829 50.4778 10.8102L50.4201 10.7641V12.2268L50.4548 12.2383C50.6741 12.3419 50.9395 12.411 51.2627 12.4917C51.5859 12.5493 51.8744 12.5953 52.1284 12.5953C52.9017 12.5953 53.5365 12.4226 53.9866 12.0425C54.4483 11.6739 54.6907 11.2017 54.6907 10.5913C54.6907 10.1652 54.5753 9.78513 54.3214 9.4972C53.9866 9.22079 53.5711 8.93286 52.9709 8.70252ZM58.6497 5.91537C57.5993 5.91537 56.7567 6.22633 56.1681 6.83674C55.5795 7.44715 55.2794 8.2879 55.2794 9.34748C55.2794 10.338 55.5795 11.1442 56.1566 11.7315C56.7337 12.3074 57.5185 12.6068 58.4996 12.6068C59.5269 12.6068 60.3463 12.2959 60.935 11.6739C61.5352 11.052 61.8237 10.2228 61.8237 9.19776C61.8237 8.18425 61.5467 7.37805 60.9812 6.79067C60.4387 6.2033 59.6423 5.91537 58.6497 5.91537ZM59.8385 10.8217C59.5615 11.1787 59.1229 11.3515 58.5804 11.3515C58.0264 11.3515 57.5993 11.1787 57.2877 10.7986C56.976 10.4416 56.826 9.92334 56.826 9.26686C56.826 8.58735 56.9876 8.06908 57.2877 7.70053C57.5993 7.33198 58.0264 7.1477 58.5689 7.1477C59.0883 7.1477 59.5153 7.32046 59.8154 7.67749C60.1155 8.03452 60.2771 8.5528 60.2771 9.23231C60.2771 9.92334 60.127 10.4646 59.8385 10.8217ZM69.8455 7.28591V6.05357H68.3335V4.16476L68.2873 4.17627L66.8561 4.60241L66.8215 4.61393V6.05357H64.5592V5.24737C64.5592 4.87882 64.6515 4.59089 64.8131 4.40662C64.9747 4.22234 65.2171 4.13021 65.5172 4.13021C65.725 4.13021 65.9443 4.17627 66.1866 4.27993L66.2444 4.31448V3.01304L66.2097 3.00152C66.002 2.93242 65.725 2.88635 65.3671 2.88635C64.917 2.88635 64.5246 2.99001 64.1668 3.16276C63.809 3.35856 63.5435 3.62345 63.3473 3.98048C63.1511 4.326 63.0472 4.71758 63.0472 5.16675V6.05357H61.9969V7.27439H63.0472V12.4341H64.5592V7.28591H66.8215V10.5683C66.8215 11.9158 67.4563 12.5953 68.7259 12.5953C68.9337 12.5953 69.153 12.5608 69.3607 12.5262C69.58 12.4802 69.7416 12.4226 69.8339 12.3765L69.8455 12.365V11.1326L69.7878 11.1787C69.6954 11.2363 69.6146 11.2824 69.4761 11.3169C69.3607 11.3515 69.2568 11.363 69.176 11.363C68.8759 11.363 68.6682 11.2939 68.5182 11.1211C68.3796 10.9599 68.3104 10.695 68.3104 10.3034V7.28591H69.8455Z" fill="#737373"/>
<path d="M0.142822 0.571411H7.21813V7.63143H0.142822V0.571411Z" fill="#F25022"/>
<path d="M7.95679 0.571411H15.0321V7.63143H7.95679V0.571411Z" fill="#7FBA00"/>
<path d="M0.142822 8.36853H7.21813V15.4286H0.142822V8.36853Z" fill="#00A4EF"/>
<path d="M7.95679 8.36853H15.0321V15.4286H7.95679V8.36853Z" fill="#FFB900"/>
</g>
<defs>
<clipPath id="clip0">
<rect width="69.7143" height="14.8571" fill="white" transform="translate(0.142822 0.571411)"/>
</clipPath>
</defs>
</svg>
