<svg width="49" height="16" viewBox="0 0 49 16" fill="none" xmlns="http://www.w3.org/2000/svg">
<g clip-path="url(#clip0)">
<path d="M20.9977 8.20523C20.9977 10.4261 19.2348 12.0626 17.0712 12.0626C14.9077 12.0626 13.1448 10.4261 13.1448 8.20523C13.1448 5.96871 14.9077 4.34784 17.0712 4.34784C19.2348 4.34784 20.9977 5.96871 20.9977 8.20523ZM19.2789 8.20523C19.2789 6.8174 18.2571 5.86784 17.0712 5.86784C15.8854 5.86784 14.8636 6.8174 14.8636 8.20523C14.8636 9.57914 15.8854 10.5426 17.0712 10.5426C18.2571 10.5426 19.2789 9.5774 19.2789 8.20523Z" fill="#EA4335"/>
<path d="M29.4684 8.20523C29.4684 10.4261 27.7055 12.0626 25.5419 12.0626C23.3784 12.0626 21.6155 10.4261 21.6155 8.20523C21.6155 5.97045 23.3784 4.34784 25.5419 4.34784C27.7055 4.34784 29.4684 5.96871 29.4684 8.20523ZM27.7496 8.20523C27.7496 6.8174 26.7278 5.86784 25.5419 5.86784C24.3561 5.86784 23.3343 6.8174 23.3343 8.20523C23.3343 9.57914 24.3561 10.5426 25.5419 10.5426C26.7278 10.5426 27.7496 9.5774 27.7496 8.20523Z" fill="#FBBC05"/>
<path d="M37.5861 4.58088V11.5061C37.5861 14.3548 35.8813 15.5183 33.8661 15.5183C31.969 15.5183 30.8272 14.2678 30.3966 13.2452L31.8931 12.6313C32.1596 13.2591 32.8125 14 33.8643 14C35.1543 14 35.9537 13.2157 35.9537 11.7391V11.1844H35.8937C35.509 11.6522 34.7678 12.0609 33.8325 12.0609C31.8755 12.0609 30.0825 10.3809 30.0825 8.21914C30.0825 6.04175 31.8755 4.34784 33.8325 4.34784C34.7661 4.34784 35.5072 4.75653 35.8937 5.21045H35.9537V4.58262H37.5861V4.58088ZM36.0755 8.21914C36.0755 6.86088 35.1561 5.86784 33.9861 5.86784C32.8002 5.86784 31.8066 6.86088 31.8066 8.21914C31.8066 9.56349 32.8002 10.5426 33.9861 10.5426C35.1561 10.5426 36.0755 9.56349 36.0755 8.21914Z" fill="#4285F4"/>
<path d="M40.2771 0.521729V11.8261H38.6006V0.521729H40.2771Z" fill="#34A853"/>
<path d="M46.8102 9.47476L48.1443 10.3513C47.7137 10.9791 46.6761 12.0609 44.8831 12.0609C42.6596 12.0609 40.999 10.3669 40.999 8.20346C40.999 5.90955 42.6737 4.34607 44.6908 4.34607C46.722 4.34607 47.7155 5.93911 48.0402 6.79998L48.2184 7.23824L42.9861 9.3739C43.3867 10.1478 44.0096 10.5426 44.8831 10.5426C45.7584 10.5426 46.3655 10.1182 46.8102 9.47476ZM42.7037 8.08694L46.2014 6.65563C46.009 6.1739 45.4302 5.83824 44.749 5.83824C43.8755 5.83824 42.6596 6.59824 42.7037 8.08694Z" fill="#EA4335"/>
<path d="M6.79888 7.20173V5.5652H12.3948C12.4495 5.85042 12.4777 6.18781 12.4777 6.55303C12.4777 7.78086 12.1371 9.29912 11.0395 10.3809C9.97182 11.4765 8.60771 12.0609 6.80065 12.0609C3.45124 12.0609 0.634766 9.37216 0.634766 6.07129C0.634766 2.77042 3.45124 0.0817261 6.80065 0.0817261C8.65359 0.0817261 9.97359 0.798248 10.9654 1.73216L9.79359 2.88694C9.08241 2.22955 8.11888 1.71825 6.79888 1.71825C4.353 1.71825 2.44006 3.66086 2.44006 6.07129C2.44006 8.48173 4.353 10.4243 6.79888 10.4243C8.38535 10.4243 9.28888 9.79651 9.86771 9.22607C10.3371 8.76346 10.6459 8.1026 10.7677 7.19999L6.79888 7.20173Z" fill="#4285F4"/>
</g>
<defs>
<clipPath id="clip0">
<rect width="48" height="16" fill="white" transform="translate(0.571289)"/>
</clipPath>
</defs>
</svg>
