<svg width="48" height="14" viewBox="0 0 48 14" fill="none" xmlns="http://www.w3.org/2000/svg">
<g clip-path="url(#clip0)">
<path d="M5.19814 2.41309V6.28151H1.67341V2.41309H0V11.6474H1.67341V7.90458H5.19814V11.6474H6.87155V2.41309H5.19814Z" fill="#33475B"/>
<path d="M12.2272 8.66242C12.2272 9.0325 12.0813 9.38742 11.8217 9.64911C11.5621 9.9108 11.21 10.0578 10.8428 10.0578C10.4756 10.0578 10.1235 9.9108 9.86389 9.64911C9.60427 9.38742 9.45841 9.0325 9.45841 8.66242V4.70721H7.87109V8.66242C7.87109 9.45606 8.18388 10.2172 8.74065 10.7784C9.29741 11.3396 10.0526 11.6548 10.8399 11.6548C11.6273 11.6548 12.3825 11.3396 12.9392 10.7784C13.496 10.2172 13.8088 9.45606 13.8088 8.66242V4.70721H12.2272V8.66242Z" fill="#33475B"/>
<path d="M23.9878 5.11462C23.9878 4.30391 24.5199 4.0469 25.1028 4.0469C25.5726 4.0469 26.1933 4.40721 26.5991 4.84439L27.6388 3.60973C27.1198 2.90232 26.067 2.41309 25.2053 2.41309C23.4835 2.41309 22.2381 3.42957 22.2381 5.11462C22.2381 8.24093 26.0293 7.24924 26.0293 8.99875C26.0293 9.5384 25.5095 10.0152 24.9143 10.0152C23.9755 10.0152 23.6713 9.55245 23.24 9.06321L22.0864 10.2723C22.8243 11.1854 23.7344 11.6491 24.8249 11.6491C26.4606 11.6491 27.7765 10.6202 27.7765 9.01198C27.7765 5.54105 23.9853 6.61952 23.9853 5.11462" fill="#33475B"/>
<path d="M47.4416 10.1722C46.5036 10.1722 46.2371 9.76315 46.2371 9.13674V6.36413H47.6949V4.95923H46.2371V3.10559L44.6277 3.83366V9.48135C44.6277 10.9259 45.6165 11.654 46.9726 11.654C47.1853 11.6579 47.3978 11.6407 47.6072 11.6027L47.9999 10.1458C47.8228 10.1582 47.6195 10.1706 47.4416 10.1706" fill="#33475B"/>
<path d="M18.269 4.75347C17.4827 4.75347 16.9342 4.98321 16.4037 5.50798V2.46844H14.814V8.10209C14.814 10.2111 16.3267 11.6557 18.0263 11.6557C19.9121 11.6557 21.5707 10.1855 21.5707 8.20539C21.5707 6.2501 20.0441 4.7543 18.269 4.7543V4.75347ZM18.2592 10.0433C17.9024 10.0433 17.5537 9.93669 17.257 9.73692C16.9604 9.53714 16.7292 9.25319 16.5927 8.92098C16.4562 8.58876 16.4205 8.2232 16.4901 7.87053C16.5597 7.51785 16.7314 7.19389 16.9837 6.93963C17.236 6.68536 17.5574 6.5122 17.9073 6.44205C18.2572 6.3719 18.6198 6.4079 18.9494 6.54551C19.279 6.68312 19.5607 6.91615 19.7589 7.21514C19.9572 7.51412 20.0629 7.86563 20.0629 8.22522C20.0629 8.70741 19.8729 9.16985 19.5346 9.51081C19.1964 9.85177 18.7376 10.0433 18.2592 10.0433Z" fill="#33475B"/>
<path d="M35.5309 8.1211C35.5309 6.13772 33.8756 4.67084 31.9865 4.67084C30.2869 4.67084 28.7742 6.1154 28.7742 8.2244V13.8613H30.3639V10.8177C30.8936 11.3416 31.4429 11.5722 32.2284 11.5722C34.0035 11.5722 35.5301 10.0772 35.5301 8.1211H35.5309ZM34.0256 8.10127C34.0256 8.46085 33.9198 8.81237 33.7216 9.11135C33.5234 9.41034 33.2417 9.64337 32.9121 9.78097C32.5825 9.91858 32.2198 9.95459 31.8699 9.88443C31.52 9.81428 31.1986 9.64113 30.9464 9.38686C30.6941 9.13259 30.5223 8.80864 30.4527 8.45596C30.3831 8.10328 30.4188 7.73772 30.5554 7.40551C30.6919 7.07329 30.9231 6.78935 31.2197 6.58957C31.5163 6.38979 31.8651 6.28316 32.2218 6.28316C32.7002 6.28316 33.159 6.47471 33.4973 6.81567C33.8356 7.15663 34.0256 7.61908 34.0256 8.10127Z" fill="#33475B"/>
<path d="M40.6669 4.59314V2.98329C40.8779 2.88388 41.0566 2.72609 41.1822 2.52829C41.3077 2.33049 41.375 2.1008 41.3761 1.86598V1.82879C41.3761 1.50003 41.2465 1.18473 41.0159 0.952253C40.7852 0.71978 40.4724 0.589178 40.1462 0.589178H40.1093C39.7832 0.589178 39.4703 0.71978 39.2397 0.952253C39.0091 1.18473 38.8795 1.50003 38.8795 1.82879V1.86598C38.8806 2.1008 38.9478 2.33049 39.0734 2.52829C39.1989 2.72609 39.3776 2.88388 39.5887 2.98329V4.59314C38.9821 4.68668 38.4107 4.94013 37.9325 5.32782L33.5526 1.88912C33.5836 1.77573 33.6001 1.65881 33.6018 1.5412C33.6023 1.26494 33.5215 0.994738 33.3696 0.764772C33.2177 0.534807 33.0016 0.355411 32.7485 0.249274C32.4955 0.143138 32.2169 0.11503 31.948 0.168505C31.6791 0.22198 31.432 0.354637 31.2379 0.549695C31.0438 0.744753 30.9114 0.99345 30.8576 1.26433C30.8037 1.53521 30.8308 1.8161 30.9353 2.07147C31.0399 2.32685 31.2172 2.54523 31.4449 2.69901C31.6726 2.85278 31.9405 2.93503 32.2145 2.93536C32.4542 2.93428 32.6894 2.86988 32.8967 2.74859L37.2102 6.13109C36.8226 6.72112 36.6204 7.41518 36.6299 8.12276C36.6394 8.83034 36.8602 9.51862 37.2635 10.0979L35.9516 11.4201C35.8455 11.386 35.735 11.3679 35.6237 11.3664C35.3987 11.3666 35.1788 11.434 34.9917 11.5601C34.8047 11.6862 34.659 11.8653 34.573 12.0749C34.4869 12.2844 34.4645 12.515 34.5084 12.7374C34.5523 12.9599 34.6607 13.1642 34.8198 13.3245C34.9789 13.4849 35.1816 13.5941 35.4023 13.6384C35.623 13.6827 35.8517 13.6601 36.0596 13.5734C36.2675 13.4866 36.4453 13.3397 36.5704 13.1512C36.6955 12.9627 36.7623 12.7411 36.7625 12.5143C36.7611 12.402 36.7431 12.2906 36.7092 12.1837L38.0071 10.8755C38.4303 11.2038 38.9225 11.4301 39.4458 11.537C39.9692 11.644 40.5099 11.6288 41.0266 11.4926C41.5432 11.3564 42.0221 11.1029 42.4265 10.7513C42.8309 10.3998 43.1501 9.95966 43.3597 9.46459C43.5693 8.96952 43.6637 8.43266 43.6357 7.89514C43.6077 7.35762 43.458 6.8337 43.198 6.3635C42.9381 5.89329 42.5749 5.48929 42.1362 5.18243C41.6974 4.87557 41.1948 4.67399 40.6669 4.59314ZM40.129 9.88712C39.774 9.8868 39.427 9.78039 39.132 9.58136C38.8369 9.38234 38.607 9.09961 38.4714 8.76893C38.3357 8.43824 38.3003 8.07444 38.3697 7.72349C38.4391 7.37255 38.6102 7.05022 38.8613 6.79724C39.1124 6.54427 39.4322 6.37199 39.7804 6.3022C40.1287 6.23241 40.4896 6.26823 40.8176 6.40513C41.1456 6.54204 41.426 6.77388 41.6233 7.07136C41.8206 7.36884 41.9261 7.71861 41.9262 8.07646C41.9262 8.55646 41.737 9.0168 41.4003 9.35621C41.0636 9.69562 40.6069 9.8863 40.1306 9.8863" fill="#FF7A59"/>
</g>
<defs>
<clipPath id="clip0">
<rect width="48" height="13.7143" fill="white" transform="translate(0 0.142883)"/>
</clipPath>
</defs>
</svg>
