<svg width="108" height="16" viewBox="0 0 108 16" fill="none" xmlns="http://www.w3.org/2000/svg">
<path fill-rule="evenodd" clip-rule="evenodd" d="M16.3833 5.8322L11.0555 5.05813L8.67381 0.230426C8.60601 0.115117 8.48223 0.0443115 8.34847 0.0443115C8.2147 0.0443115 8.09093 0.115117 8.02313 0.230426L5.6403 5.05704L0.311069 5.8322C0.174365 5.85193 0.0607138 5.94756 0.0178921 6.07887C-0.0249296 6.21018 0.010503 6.35442 0.109295 6.45095L3.9655 10.2092L3.05534 15.5155C3.03212 15.6516 3.08806 15.789 3.19969 15.8702C3.31132 15.9513 3.45932 15.9621 3.58155 15.898L8.3472 13.3929L13.1128 15.897C13.2351 15.961 13.3831 15.9502 13.4947 15.8691C13.6063 15.7879 13.6623 15.6505 13.6391 15.5145L12.7289 10.2092L16.5851 6.45095C16.6839 6.35447 16.7193 6.2103 16.6766 6.07901C16.6339 5.94771 16.5203 5.85205 16.3837 5.8322H16.3833Z" fill="#F5A623"/>
<path fill-rule="evenodd" clip-rule="evenodd" d="M39.0285 5.8322L33.7007 5.05813L31.319 0.230426C31.2511 0.115117 31.1274 0.0443115 30.9936 0.0443115C30.8598 0.0443115 30.7361 0.115117 30.6683 0.230426L28.2854 5.05704L22.9562 5.8322C22.8195 5.85193 22.7059 5.94756 22.663 6.07887C22.6202 6.21018 22.6556 6.35442 22.7544 6.45095L26.6106 10.2092L25.7005 15.5155C25.6773 15.6516 25.7332 15.789 25.8448 15.8702C25.9565 15.9513 26.1045 15.9621 26.2267 15.898L30.9923 13.3929L35.758 15.897C35.8802 15.961 36.0282 15.9502 36.1398 15.8691C36.2515 15.7879 36.3074 15.6505 36.2842 15.5145L35.374 10.2092L39.2302 6.45095C39.329 6.35447 39.3645 6.2103 39.3218 6.07901C39.279 5.94771 39.1655 5.85205 39.0288 5.8322H39.0285Z" fill="#F5A623"/>
<path fill-rule="evenodd" clip-rule="evenodd" d="M61.6736 5.8322L56.3458 5.05813L53.9641 0.230426C53.8963 0.115117 53.7725 0.0443115 53.6388 0.0443115C53.505 0.0443115 53.3812 0.115117 53.3134 0.230426L50.9306 5.05704L45.6014 5.8322C45.4646 5.85193 45.351 5.94756 45.3082 6.07887C45.2654 6.21018 45.3008 6.35442 45.3996 6.45095L49.2558 10.2092L48.3456 15.5155C48.3224 15.6516 48.3783 15.789 48.49 15.8702C48.6016 15.9513 48.7496 15.9621 48.8718 15.898L53.6375 13.3929L58.4031 15.897C58.5254 15.961 58.6734 15.9502 58.785 15.8691C58.8966 15.7879 58.9526 15.6505 58.9293 15.5145L58.0192 10.2092L61.8754 6.45095C61.9742 6.35447 62.0096 6.2103 61.9669 6.07901C61.9242 5.94771 61.8106 5.85205 61.674 5.8322H61.6736Z" fill="#F5A623"/>
<path fill-rule="evenodd" clip-rule="evenodd" d="M84.3189 5.8322L78.9911 5.05813L76.6094 0.230426C76.5416 0.115117 76.4178 0.0443115 76.284 0.0443115C76.1502 0.0443115 76.0265 0.115117 75.9587 0.230426L73.5758 5.05704L68.2466 5.8322C68.1099 5.85193 67.9963 5.94756 67.9534 6.07887C67.9106 6.21018 67.946 6.35442 68.0448 6.45095L71.9011 10.2092L70.9909 15.5155C70.9677 15.6516 71.0236 15.789 71.1352 15.8702C71.2469 15.9513 71.3949 15.9621 71.5171 15.898L76.2827 13.3929L81.0484 15.897C81.1706 15.961 81.3186 15.9502 81.4303 15.8691C81.5419 15.7879 81.5978 15.6505 81.5746 15.5145L80.6644 10.2092L84.5206 6.45095C84.6194 6.35447 84.6549 6.2103 84.6122 6.07901C84.5694 5.94771 84.4559 5.85205 84.3192 5.8322H84.3189Z" fill="#F5A623"/>
<path fill-rule="evenodd" clip-rule="evenodd" d="M106.964 5.8322L101.636 5.05813L99.2544 0.230426C99.1866 0.115117 99.0628 0.0443115 98.929 0.0443115C98.7953 0.0443115 98.6715 0.115117 98.6037 0.230426L96.2209 5.05704L90.8916 5.8322C90.7549 5.85193 90.6413 5.94756 90.5985 6.07887C90.5556 6.21018 90.5911 6.35442 90.6899 6.45095L94.5461 10.2092L93.6359 15.5155C93.6127 15.6516 93.6686 15.789 93.7803 15.8702C93.8919 15.9513 94.0399 15.9621 94.1621 15.898L98.9278 13.3929L103.693 15.897C103.816 15.961 103.964 15.9502 104.075 15.8691C104.187 15.7879 104.243 15.6505 104.22 15.5145L103.309 10.2092L107.166 6.45095C107.264 6.35447 107.3 6.2103 107.257 6.07901C107.214 5.94771 107.101 5.85205 106.964 5.8322H106.964Z" fill="#F5A623"/>
</svg>
