<svg width="9" height="9" viewBox="0 0 9 9" fill="none" xmlns="http://www.w3.org/2000/svg">
<path fill-rule="evenodd" clip-rule="evenodd" d="M8.71203 3.54134L5.97253 3.14332L4.74785 0.660945C4.71299 0.601654 4.64935 0.565247 4.58056 0.565247C4.51178 0.565247 4.44814 0.601654 4.41328 0.660945L3.18805 3.14276L0.447791 3.54134C0.377499 3.55148 0.31906 3.60065 0.297042 3.66817C0.275023 3.7357 0.293242 3.80986 0.34404 3.8595L2.32688 5.79195L1.85888 8.52045C1.84693 8.5904 1.8757 8.66107 1.9331 8.70279C1.9905 8.74452 2.0666 8.75007 2.12945 8.71713L4.57991 7.42901L7.03037 8.71657C7.09322 8.74951 7.16932 8.74396 7.22672 8.70223C7.28412 8.66051 7.31289 8.58984 7.30095 8.51989L6.83295 5.79195L8.81578 3.8595C8.86657 3.80989 8.88481 3.73575 8.86284 3.66824C8.84086 3.60073 8.78248 3.55154 8.71222 3.54134H8.71203Z" fill="#F5A623"/>
</svg>
