<svg width="51" height="30" viewBox="0 0 51 30" fill="none" xmlns="http://www.w3.org/2000/svg">
<path d="M1 29.6139C1.36979 28.5636 1.99102 27.6198 2.80948 26.8648C3.62793 26.1099 4.61873 25.5667 5.69539 25.2827C6.77206 24.9987 7.90186 24.9826 8.9862 25.2357C10.0705 25.4888 11.0764 26.0035 11.9161 26.7348L12.3391 27.0895C13.2136 27.839 14.2636 28.3549 15.3913 28.5891C16.5189 28.8234 17.6875 28.7684 18.7881 28.4292C19.8887 28.09 20.8856 27.4777 21.6858 26.6494C22.486 25.821 23.0634 24.8036 23.3644 23.6919L25.534 15.3957C25.8332 14.2828 26.4094 13.2639 27.2089 12.434C28.0084 11.6041 29.005 10.9902 30.1059 10.6495C31.2067 10.3089 32.3759 10.2527 33.5044 10.4861C34.6329 10.7196 35.6839 11.235 36.5593 11.9844L36.8185 12.2163C37.693 12.9658 38.743 13.4817 39.8706 13.7159C40.9983 13.9502 42.1669 13.8951 43.2675 13.5559C44.3681 13.2167 45.365 12.6045 46.1652 11.7761C46.9654 10.9478 47.5428 9.93039 47.8438 8.81868L49.8906 1" stroke="#00ECD0" stroke-width="2" stroke-miterlimit="10"/>
</svg>
